<?xml version="1.0" encoding="UTF-8"?>
<svg xmlns="http://www.w3.org/2000/svg" viewBox="200 375 425 520" width="875" height="875">
<path d="M508.92 642.74C508.29 643 507.65 643.25 507.01 643.5C508.63 644.37 510.26 645.25 511.88 646.12C511.89 646.58 511.9 647.04 511.91 647.5C512.58 647.7 513.24 647.9 513.91 648.1C514.9 648.77 515.89 649.45 516.88 650.12C517.48 650.79 518.09 651.47 518.69 652.14C520.08 653.53 521.47 654.92 522.86 656.31C523.47 656.91 524.09 657.52 524.7 658.13C525.08 658.53 525.46 658.93 525.84 659.33C526.85 660.26 527.86 661.19 528.88 662.12C530.82 664.46 532.76 666.79 534.7 669.13C535.86 670.42 537.02 671.71 538.18 673C538.73 673.64 539.29 674.28 539.85 674.92C540.93 675.94 542 676.97 543.08 678C543.95 678.72 544.81 679.44 545.67 680.16C547.42 681.86 549.16 683.56 550.9 685.26C552.91 687.2 554.91 689.15 556.91 691.09C557.56 692.03 558.2 692.97 558.85 693.91C559.23 694.33 559.61 694.76 560 695.19C560.61 695.78 561.22 696.38 561.84 696.98C562.23 697.37 562.63 697.77 563.02 698.17C563.68 698.72 564.34 699.27 565 699.82C565.29 699.98 565.58 700.15 565.87 700.31C567.91 702.18 569.96 704.05 572 705.92C573.29 707.04 574.58 708.17 575.87 709.3C576.6 709.85 577.33 710.39 578.06 710.94C578.54 711.9 579.02 712.86 579.5 713.82C579.97 713.91 580.44 714 580.91 714.09C582.9 716.77 584.89 719.44 586.88 722.12C587.58 724.7 589.08 727.04 589.88 729.59C591.22 733.84 592.31 739.11 593.01 743.51C593.47 746.39 593.02 749.36 593.42 752.24C594 756.4 595.25 760.42 595.94 764.53C596.48 767.79 595.96 771.17 596.35 774.44C596.68 777.15 597.55 779.79 597.9 782.5C598.91 790.42 598.25 798.58 599.14 806.5C599.42 809 599.04 811.5 599.79 813.87C600.25 815.91 600.7 817.96 601.16 820C601.15 838.28 601.13 856.56 601.11 874.83C571.08 874.83 541.04 874.83 511 874.83C510.97 872.82 510.33 871.37 510.04 869.47C509.64 866.87 510.38 864.13 509.97 861.53C509.49 858.51 508.5 855.49 508.03 852.47C507.62 849.87 508.38 847.13 507.97 844.53C506.2 833.27 505.89 821.75 504.16 810.46C502.62 800.34 505.55 789.61 503.97 779.53C503.5 776.51 502.53 773.49 502.05 770.47C501.7 768.2 502.32 765.8 501.97 763.53C500.88 756.56 500.12 749.45 499.03 742.47C498.06 736.29 499.94 729.71 498.97 723.53C498.28 719.17 498.62 714.8 497.97 710.53C497.15 705.17 495.88 699.82 495.04 694.47C494.79 692.89 495.12 691.28 494.81 689.69C494.42 687.62 493.36 685.57 493.03 683.47C492.1 677.53 491.3 671.53 489.5 665.75C477.84 671.74 463.2 671.06 450.72 667.73C446.44 666.59 443.48 662.96 439.93 660.56C436.09 657.96 431.4 656.39 427.72 653.77C422.98 650.4 417.81 642.29 412.06 641.5C412.42 649.39 422.56 660.87 424.81 668.69C426.53 674.66 429.24 680.72 430.74 686.74C432.53 693.9 434.53 701.35 437.19 708.31C438.62 712.06 440.7 715.84 441.81 719.69C444.29 728.28 448.1 736.85 449.81 745.69C451.06 752.16 451.66 758.91 453.19 765.31C453.47 766.51 454.52 767.49 454.81 768.69C456.08 773.84 456.7 779.19 458.19 784.31C459.08 787.37 460.4 790.19 461.19 793.31C462.25 797.55 464.89 801.39 465.8 805.69C467.53 813.83 467.67 822.34 468.95 830.53C469.41 833.45 468.57 836.55 469.03 839.47C469.5 842.49 470.5 845.51 470.97 848.53C471.53 852.1 470.67 855.9 471 859.5C471.47 864.61 472 869.54 472 874.83C388 874.83 303.99 874.83 219.99 874.83C220.03 873.59 220.07 872.34 220.11 871.1C220.4 870.9 220.69 870.7 220.98 870.5C221.36 866.43 221.74 862.35 222.13 858.28C222.52 856.9 222.91 855.51 223.31 854.13C223.55 853.08 223.8 852.03 224.05 850.98C224.28 850.82 224.51 850.66 224.75 850.5C224.88 848.1 225.01 845.7 225.14 843.31C225.52 842.56 225.9 841.82 226.29 841.08C226.87 836.7 227.45 832.32 228.02 827.93C230.32 825.07 229.86 821.57 230.08 818C230.47 816.67 230.86 815.33 231.24 814C233 810.61 232.93 806.89 233.12 803.12C233.43 802.08 233.74 801.03 234.05 799.99C236.39 796.47 235.43 792.59 235.98 788.5C236.24 786.62 237.34 785.24 237.67 783.43C238.2 780.52 237.67 777.47 238.16 774.55C238.65 771.68 239.99 769.02 240.56 766.21C241.14 763.36 240.61 760.39 241.09 757.53C241.53 754.94 242.97 752.58 243.48 749.99C243.89 747.86 243.64 745.67 244.06 743.54C244.36 742.03 245.32 740.78 245.66 739.29C246.63 735.06 246.27 730.77 246.99 726.52C247.87 721.36 249.22 716.22 250.09 711.09C250.78 708.83 251.47 706.58 252.16 704.33C252.55 703.61 252.94 702.88 253.33 702.16C256.87 698.84 260.42 695.52 263.96 692.2C275 686.4 281.09 673.65 291.05 666.54C292.85 665.26 295.17 664.75 296.97 663.47C302.82 659.29 308.56 655.75 314.97 652.47C318.43 650.7 321.73 647.54 324.69 645.19C326.93 643.4 330.07 642.6 332.31 640.81C335.59 638.21 338.47 634.82 342.03 632.53C345.33 630.41 349.03 628.92 352.34 626.84C360.53 621.71 378.99 609.48 388.47 611.03C391.25 611.49 393.13 613.82 395.5 614.96C398.17 600.82 400.83 586.68 403.5 572.54C390.24 568.54 383.74 557.34 377.7 545.78C374.73 540.08 371.49 533.29 372.31 526.67C373.05 520.71 376.33 517.73 379.99 513.5C377.23 501.02 372.42 487.56 374.22 474.55C375.47 465.45 383.39 456.39 389.43 449.91C391.2 448.01 394.16 446.19 395.38 443.89C396.63 441.54 396.02 438.46 396.5 435.9C397.49 430.58 400.65 424.75 404.19 420.7C419.69 402.94 445.64 400.74 467.5 398.96C473.4 398.48 480.31 395.55 485.98 396.5C488.29 400.27 486.49 402.72 485.16 406.5C494.33 409.11 504.97 410.11 514.46 408.8C519.88 408.05 527.84 403.75 532.84 406.5C534.61 411.11 531.21 415.14 529.71 419.5C542.4 432.26 555.77 447.48 556.19 466.5C556.27 469.94 555.77 483.33 552.99 485.5C551.88 486.36 550.43 486.35 549.1 486.5C547.74 492.19 544.75 496.34 542.35 501.5C548.03 502.77 555.91 501.17 560.85 504.5C562.56 508.11 561.43 511.62 561.11 515.5C559.87 530.35 557.02 536.3 541.5 538.4C540.18 546.77 538.86 555.13 537.53 563.5C542.96 568.22 545.01 579.41 544.72 586.45C544.59 589.83 542.84 593.33 542.24 596.65C541.06 603.18 540.94 609.93 538.7 616.25C533.75 630.26 520.58 635.76 508.92 642.74ZM390.81 548C390.8 545.67 390.8 543.33 390.79 541C391.92 536.83 393.04 532.67 394.16 528.5C392.07 526.23 390.12 525.32 387 525.3C386.05 525.2 385.11 525.1 384.16 525C383.89 524.17 383.62 523.33 383.35 522.5C389.49 515.06 399.52 525.72 403.99 530.12C404.58 531.09 405.17 532.05 405.75 533.02C405.47 534.34 405.19 535.67 404.91 537C403.97 537 403.03 537 402.09 537C400.9 535.3 399.7 533.6 398.5 531.9C395.68 537.08 393.68 547.5 398.5 551.83C399.5 547.63 399.48 545.5 404.26 545.05C404.68 545.2 405.1 545.35 405.52 545.5C405.09 544.98 404.66 544.47 404.23 543.95C401.74 538.25 406.29 538.5 409.5 541.78C410.33 540.79 411.17 539.81 412 538.83C413.67 538.15 415.33 537.47 417 536.79C418.32 539.52 417.15 540.5 415.07 542.5C421.84 544.73 420.96 555.05 428.07 559.43C433.62 562.86 440.29 561.83 446.5 562.78C450.46 563.38 453.88 565.28 457.5 566.82C459.07 563.75 460.58 560.08 463.44 557.95C469.53 553.43 486.86 551.68 494.27 552.42C498.03 552.8 502.05 555.94 505.5 555.24C507.62 553.95 507.26 553.03 508.72 551.17C510.34 549.12 513.49 548.73 514.45 545.97C516.06 541.35 507.04 530.19 504.7 525.77C502.54 521.7 500.47 516.45 506.89 516.5C506.75 514.5 506.61 512.5 506.47 510.5C504.15 510.66 501.82 510.82 499.5 510.97C497.57 519.16 498.24 531.57 490.84 537.33C484.8 542.04 474.82 542.62 467.5 542.63C455.68 542.64 439.37 541.47 432.47 530.08C430.3 526.49 429.9 521.55 428.88 517.55C427.72 513.02 426.55 509.2 427.31 504.5C433.18 499.83 447.88 501.15 455.27 500.57C465.29 499.79 475.5 499.36 485.5 500.83C489.31 501.38 493.67 504.57 497.31 504.55C499.35 504.54 501.34 503.35 503.47 503.39C505.45 503.43 507.54 504.68 509.46 504.55C513.09 504.3 516.77 501.61 520.51 501.14C525.44 500.52 530.56 501.17 535.5 501.03C535.42 498.52 535.34 496.01 535.27 493.5C530.36 495.83 530.41 494.04 525.57 494.3C523.34 494.42 520.93 496.19 518.71 495.67C516.97 495.26 516.68 493.86 516.08 492.5C519.24 486.44 530.46 486.3 534.5 491.42C536.31 480.47 531.5 469.42 525.5 460.47C521.01 465.47 511.01 479.16 503.5 475.98C501.68 470.34 507.28 466.56 507.5 461C496.47 472.81 485.49 481.92 469.65 486.5C474.61 487.88 480.21 487.6 478.5 494.21C475.43 495.22 473.6 493.73 470.5 493.76C466.35 493.79 463.61 496.33 459.5 495.61C457.67 492.66 458.78 491.33 461.43 489.5C455.6 488.77 443.56 494.19 439.31 490.5C439.43 486.51 441.91 484.82 444.33 481.78C448.36 476.7 458.7 464.05 458.5 458.02C452.19 464.28 446.73 470.9 441.74 478.25C439.03 482.24 438.17 486.31 432.75 485.5C430.38 479.94 434.92 474.05 434.5 468.29C430.08 477.79 426.39 487.4 424.34 497.74C423.56 501.71 424.16 508.91 421.64 512.11C417.92 516.81 407.18 516.07 404.71 518.26C403.74 519.11 403.35 521.02 402.5 522.14C397.11 521.4 392.74 515.94 386.75 517.32C377.21 519.5 377.22 530.18 380.16 537.39C385.45 550.34 394.98 568.18 411.15 567.5C410.76 561.83 410.37 556.17 409.98 550.5C408.37 550.71 405.44 550.57 404.18 551.72C402.75 553.02 403.25 555.46 401.04 556.49C395.08 559.24 392.01 552.5 390.81 548ZM492.91 509.5C479.65 503.75 448.74 506.46 434.17 508.5C433.99 511.9 434.68 514.63 435.55 517.93C436.41 521.26 436.99 525.55 439.17 528.32C445.15 535.94 458.8 536.29 467.5 536.2C473.29 536.14 482.75 536.06 487.25 531.73C491.01 528.11 493.14 514.53 492.91 509.5ZM555.66 509.5C545.94 507.33 522.77 506.16 513.5 509.59C512.32 516.47 513.8 524.76 516.5 531.22C524.74 532.12 545.54 535.07 551.65 528.18C555.3 524.08 555.1 514.68 555.66 509.5ZM471.5 508.94C478.4 512.4 476.82 522.85 470.5 526.05C461.42 524.37 462.67 509.95 471.5 508.94ZM526.5 509.01C532.46 513.08 531.43 522.31 525.5 525.96C515.52 525.32 516.84 509.43 526.5 509.01ZM535.84 511.04C537.38 511.02 540.74 510.32 541.92 511.75C543.18 513.29 542.04 524.04 541.91 526.5C541.84 527.67 542.09 529.65 540.99 530.43C539.65 531.37 537.29 530.66 535.84 530.5C535.84 524.01 535.84 517.53 535.84 511.04ZM412.95 529.09C410.97 530.1 408.98 531.11 407 532.11C406.74 532.05 406.49 531.99 406.23 531.93C406.15 530.61 406.07 529.29 405.99 527.97C406.79 527.48 407.6 526.99 408.4 526.5C407.27 526.36 406.13 526.22 405 526.09C404.78 524.89 404.56 523.7 404.35 522.5C406.96 520.57 408.6 519.68 411.8 520.5C411.79 522.71 411.87 522.73 410.65 524.5C413.55 525.47 414.42 526.16 412.95 529.09ZM413.12 530.05C416.59 530.85 416.98 532.41 415 535.17C413.92 536.08 412.84 536.99 411.76 537.9C408.83 537.62 408.24 537.03 408.01 534.12C409.71 532.76 411.41 531.41 413.12 530.05ZM520.5 538.66C520.78 545.78 521.53 547.15 517.14 553.5C521.84 555.5 526.55 557.5 531.26 559.5C532.3 552.55 533.34 545.61 534.37 538.66C529.75 538.66 525.12 538.66 520.5 538.66ZM413.77 544.5C411.02 544.06 411.16 544.51 411.5 547.18C412.26 546.29 413.01 545.39 413.77 544.5ZM513 569.48C511.67 569.4 510.33 569.32 509 569.24C503.28 569.07 497.56 568.89 491.84 568.71C490.89 568.55 489.95 568.4 489 568.24C483.55 567.91 474.42 566.09 469.96 569.5C467.36 576.03 472.18 580.89 477.72 583.78C487.74 589 500.35 589.45 510.83 585.38C517.46 582.8 523.21 577.33 519.5 570.01C517.33 569.83 515.17 569.65 513 569.48ZM510.28 574.5C511.88 579.44 507.12 580.81 502.99 581.51C498.13 582.33 481.67 581.56 478.67 576.8C477.98 575.7 478.23 574.71 478.13 573.5C479.29 572.53 479.86 571.91 481.5 571.87C483.43 571.83 485.03 573.04 486.81 573.58C491.5 575.02 496.6 575.55 501.5 575.02C505.14 574.63 506.94 572.33 510.28 574.5ZM410.5 573.84C407.08 580.57 404.4 600.07 402.81 608.44C402.06 612.4 399.51 618.34 400.22 622.31C401.01 626.69 410.75 632.83 414.32 635.17C417.47 637.22 420.85 638.41 423.87 640.6C426.76 642.7 428.69 645.91 431.64 647.93C435.17 650.37 439.29 652.27 442.98 654.53C448.41 657.87 451.99 661.65 458.58 662.82C464.76 663.93 484.13 664.64 487.47 657.95C489.3 654.28 488.42 647.61 487.5 643.82C484.23 648 479.28 659.38 473.5 658.1C469.93 652.86 477.38 647.02 480.1 642.5C472.09 638.62 462.52 636.7 454.14 633.39C446.88 630.53 440.23 625.03 433.65 620.87C426.31 616.24 418.59 610.86 414.56 602.93C411.25 596.43 411.53 589.52 411.37 582.39C411.3 579.25 412.1 576.42 410.5 573.84ZM484.5 676.65C484.74 678.23 485.27 679.43 484.47 680.98C483.51 682.83 479.91 684.02 478.05 684.52C472.18 686.1 457.64 685.26 452.9 681.5C453.05 680.03 452.7 678.61 454.11 677.62C456.51 675.93 460.06 677.43 462.56 677.86C466.46 678.52 471.58 678.61 475.5 678.01C479.28 677.43 480.73 674.24 484.5 676.65Z" fill="#000000" fill-rule="evenodd"/>>
<path d="M384.16 525C385.11 525.1 386.05 525.2 387 525.3C386.17 525.53 385.33 525.77 384.5 526C384.39 525.67 384.27 525.33 384.16 525ZM405 526.09C406.13 526.22 407.27 526.36 408.4 526.5C407.6 526.99 406.79 527.48 405.99 527.97C405.66 527.34 405.33 526.71 405 526.09ZM405.99 527.97C406.07 529.29 406.15 530.61 406.23 531.93C406.07 532.29 405.91 532.65 405.75 533.02C405.17 532.05 404.58 531.09 403.99 530.12C404.66 529.4 405.32 528.69 405.99 527.97ZM412.95 529.09C413.01 529.41 413.06 529.73 413.12 530.05C411.41 531.41 409.71 532.76 408.01 534.12C407.67 533.45 407.34 532.78 407 532.11C408.98 531.11 410.97 530.1 412.95 529.09ZM415 535.17C415.67 535.71 416.33 536.25 417 536.79C415.33 537.47 413.67 538.15 412 538.83C411.92 538.52 411.84 538.21 411.76 537.9C412.84 536.99 413.92 536.08 415 535.17ZM402.09 537C403.03 537 403.97 537 404.91 537C404.1 537.33 403.3 537.67 402.5 538C402.36 537.67 402.23 537.33 402.09 537ZM390.79 541C390.8 543.33 390.8 545.67 390.81 548C390.54 547.83 390.27 547.67 390 547.5C390 545.5 390 543.5 390 541.5C390.26 541.33 390.53 541.17 390.79 541ZM404.23 543.95C404.66 544.47 405.09 544.98 405.52 545.5C405.1 545.35 404.68 545.2 404.26 545.05C404.25 544.68 404.24 544.32 404.23 543.95ZM413.77 544.5C413.01 545.39 412.26 546.29 411.5 547.18C411.16 544.51 411.02 544.06 413.77 544.5ZM489 568.24C489.95 568.4 490.89 568.55 491.84 568.71C491.06 568.81 490.28 568.9 489.5 569C489.33 568.75 489.17 568.49 489 568.24ZM509 569.24C510.33 569.32 511.67 569.4 513 569.48C511.83 569.65 510.67 569.83 509.5 570C509.33 569.75 509.17 569.5 509 569.24ZM508.92 642.74C509.91 643.87 510.89 645 511.88 646.12C510.26 645.25 508.63 644.37 507.01 643.5C507.65 643.25 508.29 643 508.92 642.74ZM511.88 646.12C512.56 646.78 513.23 647.44 513.91 648.1C513.24 647.9 512.58 647.7 511.91 647.5C511.9 647.04 511.89 646.58 511.88 646.12ZM513.91 648.1C515.8 648.5 515.93 648.46 516.88 650.12C515.89 649.45 514.9 648.77 513.91 648.1ZM516.88 650.12C517.48 650.79 518.09 651.47 518.69 652.14C518.09 651.47 517.48 650.79 516.88 650.12ZM522.86 656.31C523.47 656.91 524.09 657.52 524.7 658.13C524.09 657.52 523.47 656.91 522.86 656.31ZM525.84 659.33C526.89 659.72 527.95 660.11 529 660.5C528.96 661.04 528.92 661.58 528.88 662.12C527.86 661.19 526.85 660.26 525.84 659.33ZM528.88 662.12C531.76 663.68 533.74 665.99 534.7 669.13C532.76 666.79 530.82 664.46 528.88 662.12ZM538.18 673C538.78 673.17 539.39 673.33 540 673.5C539.95 673.97 539.9 674.44 539.85 674.92C539.29 674.28 538.73 673.64 538.18 673ZM543.08 678C544.91 678.52 544.96 678.52 545.67 680.16C544.81 679.44 543.95 678.72 543.08 678ZM550.9 685.26C551.44 685.18 551.97 685.09 552.5 685C554.49 686.99 556.32 688.36 556.91 691.09C554.91 689.15 552.91 687.2 550.9 685.26ZM556.91 691.09C557.44 691.06 557.97 691.03 558.5 691C558.62 691.97 558.73 692.94 558.85 693.91C558.2 692.97 557.56 692.03 556.91 691.09ZM263.96 692.2C260.42 695.52 256.87 698.84 253.33 702.16C253.22 701.6 253.11 701.05 253 700.5C254 698.83 255 697.17 256 695.5C258.75 694.12 260.94 692.18 263.96 692.2ZM560 695.19C560.5 695.12 561 695.06 561.5 695C561.61 695.66 561.73 696.32 561.84 696.98C561.22 696.38 560.61 695.78 560 695.19ZM563.02 698.17C563.52 698.11 564.01 698.06 564.5 698C564.67 698.61 564.83 699.21 565 699.82C564.34 699.27 563.68 698.72 563.02 698.17ZM565.87 700.31C566.41 700.21 566.96 700.1 567.5 700C569 701.97 570.5 703.94 572 705.92C569.96 704.05 567.91 702.18 565.87 700.31ZM252.16 704.33C251.47 706.58 250.78 708.83 250.09 711.09C250.39 708.89 250.7 706.7 251 704.5C251.39 704.44 251.78 704.39 252.16 704.33ZM575.87 709.3C576.41 709.2 576.96 709.1 577.5 709C577.69 709.65 577.87 710.29 578.06 710.94C577.33 710.39 576.6 709.85 575.87 709.3ZM250.09 711.09C249.22 716.22 247.87 721.36 246.99 726.52C246.27 730.77 246.63 735.06 245.66 739.29C245.32 740.78 244.36 742.03 244.06 743.54C243.64 745.67 243.89 747.86 243.48 749.99C242.97 752.58 241.53 754.94 241.09 757.53C240.61 760.39 241.14 763.36 240.56 766.21C239.99 769.02 238.65 771.68 238.16 774.55C237.67 777.47 238.2 780.52 237.67 783.43C237.34 785.24 236.24 786.62 235.98 788.5C235.43 792.59 236.39 796.47 234.05 799.99C233.95 795.21 234.09 790.3 235.19 785.69C235.55 784.19 236.71 783.03 236.97 781.47C237.45 778.55 236.57 775.45 237.03 772.53C237.52 769.41 239.22 766.41 239.81 763.31C240.3 760.8 239.69 758.2 240.19 755.69C240.48 754.22 241.52 752.78 241.81 751.31C242.46 748.08 242.26 744.9 243.19 741.69C243.62 740.2 244.71 739.04 244.97 737.47C245.61 733.58 244.39 729.42 245.03 725.53C245.44 723.03 247.31 720.82 247.81 718.31C248.43 715.24 247.17 712.86 250.09 711.09ZM578.06 710.94C580.26 711.62 580.44 711.88 580.91 714.09C580.44 714 579.97 713.91 579.5 713.82C579.02 712.86 578.54 711.9 578.06 710.94ZM580.91 714.09C581.44 714.06 581.97 714.03 582.5 714C584.15 717.15 586.78 718.42 586.88 722.12C584.89 719.44 582.9 716.77 580.91 714.09ZM586.88 722.12C590.97 724.47 593.22 738.48 594.19 743.31C594.93 747 594.45 750.73 595.03 754.47C595.4 756.85 596.6 759.15 596.97 761.53C597.43 764.45 596.57 767.55 597.03 770.47C597.87 775.82 599.13 781.18 599.97 786.53C601.08 793.65 600.44 806.55 599.79 813.87C599.04 811.5 599.42 809 599.14 806.5C598.25 798.58 598.91 790.42 597.9 782.5C597.55 779.79 596.68 777.15 596.35 774.44C595.96 771.17 596.48 767.79 595.94 764.53C595.25 760.42 594 756.4 593.42 752.24C593.02 749.36 593.47 746.39 593.01 743.51C592.31 739.11 591.22 733.84 589.88 729.59C589.08 727.04 587.58 724.7 586.88 722.12ZM234.05 799.99C233.74 801.03 233.43 802.08 233.12 803.12C233.08 802.25 233.04 801.37 233 800.5C233.35 800.33 233.7 800.16 234.05 799.99ZM233.12 803.12C232.93 806.89 233 810.61 231.24 814C231.5 810.5 231.75 807 232 803.5C232.37 803.37 232.75 803.25 233.12 803.12ZM230.08 818C229.86 821.57 230.32 825.07 228.02 827.93C228.35 824.79 228.67 821.64 229 818.5C229.36 818.33 229.72 818.17 230.08 818ZM601.16 820C603.88 825.16 603 832.59 603 838.5C603 850.61 603 862.72 603 874.83C602.37 874.83 601.74 874.83 601.11 874.83C601.13 856.56 601.15 838.28 601.16 820ZM228.02 827.93C227.45 832.32 226.87 836.7 226.29 841.08C226.52 836.89 226.76 832.69 227 828.5C227.34 828.31 227.68 828.12 228.02 827.93ZM225.14 843.31C225.01 845.7 224.88 848.1 224.75 850.5C224.51 850.66 224.28 850.82 224.05 850.98C224.03 848.49 224.02 845.99 224 843.5C224.38 843.44 224.76 843.37 225.14 843.31ZM224.05 850.98C223.8 852.03 223.55 853.08 223.31 854.13C223.2 853.25 223.1 852.38 223 851.5C223.35 851.33 223.7 851.15 224.05 850.98ZM222.13 858.28C221.74 862.35 221.36 866.43 220.98 870.5C220.69 870.7 220.4 870.9 220.11 871.1C220.4 866.9 220.7 862.7 221 858.5C221.38 858.43 221.75 858.35 222.13 858.28ZM220.11 871.1C220.07 872.34 220.03 873.59 219.99 874.83C219.66 874.83 219.33 874.83 219 874.83C219 873.72 219 872.61 219 871.5C219.37 871.37 219.74 871.23 220.11 871.1Z" fill="#ffffff" fill-rule="evenodd"/>>
</svg>